{"title":"Foo Fighters - Live at Glastonbury 2017 - 720p","magnet":"magnet:?xt=urn:btih:6744bb0f372e5ad56b3e2e014de1c903273f6b26&dn=Foo+Fighters+-+Live+at+Glastonbury+2017+-+720p&tr=udp%3A%2F%2Ftracker.leechers-paradise.org%3A6969&tr=udp%3A%2F%2Fzer0day.ch%3A1337&tr=udp%3A%2F%2Fopen.demonii.com%3A1337&tr=udp%3A%2F%2Ftracker.coppersurfer.tk%3A6969&tr=udp%3A%2F%2Fexodus.desync.com%3A6969","uploader":"lentini1978","categoryP":"video","categoryS":"other","size":"2693770320","seeders":"3","leechers":"10","description":"Ripped and edited by lentini\r\n\r\n\r\nCut out all the other rubbish and made slight edits but the rest of it is untouched.\r\n\r\n\r\n\r\n\r\nComplete name               : Foo Fighters - Live at Glastonbury 2017.720p.mp4\r\nFormat                      : MPEG-4\r\nCodec ID                    : MSNV (MSNV/isom/mp42)\r\nFile size                   : 2.51 GiB\r\nDuration                    : 2 h 23 min\r\nOverall bit rate mode       : Variable\r\nOverall bit rate            : 2 508 kb/s\r\nEncoded date                : UTC 2017-06-25 08:02:50\r\nTagged date                 : UTC 2017-06-25 08:02:50\r\n\r\nVideo\r\nID                          : 1\r\nFormat                      : AVC\r\nFormat/Info                 : Advanced Video Codec\r\nFormat profile              : <a class=\"__cf_email__\" href=\"/cdn-cgi/l/email-protection\" data-cfemail=\"6c24050b042c2058425d\">[email&#xA0;protected]</a><script data-cfhash=\"f9e31\" type=\"text/javascript\">/* <![CDATA[ */!function(t,e,r,n,c,a,p){try{t=document.currentScript||function(){for(t=document.getElementsByTagName('script'),e=t.length;e--;)if(t[e].getAttribute('data-cfhash'))return t[e]}();if(t&&(c=t.previousSibling)){p=t.parentNode;if(a=c.getAttribute('data-cfemail')){for(e='',r='0x'+a.substr(0,2)|0,n=2;a.length-n;n+=2)e+='%'+('0'+('0x'+a.substr(n,2)^r).toString(16)).slice(-2);p.replaceChild(document.createTextNode(decodeURIComponent(e)),c)}p.removeChild(t)}}catch(u){}}()/* ]]> */</script>\r\nFormat settings, CABAC      : Yes\r\nFormat settings, ReFrames   : 2 frames\r\nCodec ID                    : avc1\r\nCodec ID/Info               : Advanced Video Coding\r\nDuration                    : 2 h 23 min\r\nSource duration             : 2 h 23 min\r\nBit rate mode               : Variable\r\nBit rate                    : 2 312 kb/s\r\nMaximum bit rate            : 3 500 kb/s\r\nWidth                       : 1 280 pixels\r\nHeight                      : 720 pixels\r\nDisplay aspect ratio        : 16:9\r\nFrame rate mode             : Constant\r\nFrame rate                  : 25.000 FPS\r\nColor space                 : YUV\r\nChroma subsampling          : 4:2:0\r\nBit depth                   : 8 bits\r\nScan type                   : Progressive\r\nBits/(Pixel*Frame)          : 0.100\r\nStream size                 : 2.31 GiB (92%)\r\nSource stream size          : 2.31 GiB (92%)\r\nLanguage                    : English\r\nEncoded date                : UTC 2017-06-25 08:02:50\r\nTagged date                 : UTC 2017-06-25 08:02:50\r\n\r\nAudio\r\nID                          : 2\r\nFormat                      : AAC\r\nFormat/Info                 : Advanced Audio Codec\r\nFormat profile              : LC\r\nCodec ID                    : 40\r\nDuration                    : 2 h 23 min\r\nSource duration             : 2 h 23 min\r\nBit rate mode               : Constant\r\nBit rate                    : 192 kb/s\r\nChannel(s)                  : 2 channels\r\nChannel positions           : Front: L R\r\nSampling rate               : 48.0 kHz\r\nFrame rate                  : 46.875 FPS (1024 spf)\r\nCompression mode            : Lossy\r\nStream size                 : 197 MiB (8%)\r\nSource stream size          : 197 MiB (8%)\r\nLanguage                    : English\r\nEncoded date                : UTC 2017-06-25 08:02:50\r\nTagged date                 : UTC 2017-06-25 08:02:50\r\nmdhd_Duration               : 8593480","last_updated":"2017-06-25T12:00:26.730Z","parsed":{"xt":"urn:btih:6744bb0f372e5ad56b3e2e014de1c903273f6b26","dn":"Foo Fighters - Live at Glastonbury 2017 - 720p","tr":["udp://exodus.desync.com:6969","udp://open.demonii.com:1337","udp://tracker.coppersurfer.tk:6969","udp://tracker.leechers-paradise.org:6969","udp://zer0day.ch:1337"],"infoHash":"6744bb0f372e5ad56b3e2e014de1c903273f6b26","infoHashBuffer":{"type":"Buffer","data":[103,68,187,15,55,46,90,213,107,62,46,1,77,225,201,3,39,63,107,38]},"name":"Foo Fighters - Live at Glastonbury 2017 - 720p","announce":["udp://exodus.desync.com:6969","udp://open.demonii.com:1337","udp://tracker.coppersurfer.tk:6969","udp://tracker.leechers-paradise.org:6969","udp://zer0day.ch:1337"],"urlList":[]}}